<svg xmlns="http://www.w3.org/2000/svg" width="256" height="256"><path fill="#1976D2" fill-opacity=".016" fill-rule="evenodd" d="M0 128.004v128.004l128.25-.254 128.25-.254.254-127.75L257.008 0H0zm.485.496c0 70.4.119 99.053.265 63.672s.146-92.98 0-128S.485 58.1.485 128.5"/><path fill="#1976D2" fill-opacity=".275" fill-rule="evenodd" d="M176.198 1.739c-4.162.29-6.744 1.291-12 4.652-3.684 2.356-7.483 4.566-8.442 4.913-.96.346-2.62 2.106-3.691 3.912s-2.324 3.734-2.784 4.284c-.461.55-.68 1.788-.486 2.75.193.962-.023 1.75-.481 1.75s-.801 3.058-.761 6.796c.052 4.905.702 8.098 2.335 11.473 1.286 2.657 1.932 5.228 1.495 5.954C150.482 49.718 135.876 68 135.582 68c-.109 0-3.998-1.404-8.641-3.119-7.076-2.615-10.319-3.202-20.051-3.632-22.194-.979-37.056 4.741-52.422 20.178-14.723 14.79-20.482 28.724-20.453 49.483.025 17.735 4.677 31.285 15.055 43.844C62.527 191.042 81.72 200 103.16 200c8.709 0 9.84.201 9.84 1.752 0 .963-2.124 3.326-4.72 5.25-17.194 12.742-12.48 40.789 7.998 47.59 5.956 1.979 15.683 1.514 20.504-.979 12.132-6.274 18.364-19.719 14.808-31.95-3.325-11.44-12.866-19.334-24.661-20.403-7.585-.688-7.733-2.507-.389-4.816 3.047-.959 7.562-3.026 10.035-4.593s4.704-2.851 4.96-2.851.465 2.025.465 4.5v4.5h37v-15.5c0-8.525.251-15.5.557-15.5s2.506.491 4.887 1.09c3.933.991 4.384 1.425 4.93 4.75 1.469 8.941 8.956 14.767 17.877 13.91 8.6-.826 14.749-7.475 14.749-15.948 0-5.992-1.882-9.847-6.541-13.401-6.97-5.316-18.097-3.787-23.176 3.185l-1.935 2.657-5.674-1.649-5.674-1.65v-35.728l3.711 1.892c4.14 2.11 12.495 2.519 16.974.831 4.003-1.51 9.245-6.763 11.415-11.439 7.99-17.22-10.436-35.432-27.85-27.527L179 89.902V62h-31.117l4.196-5.373 4.196-5.373 4.891 3.04c4.077 2.534 6.198 3.116 12.755 3.495 6.816.395 8.58.128 13.228-2 14.31-6.551 21.169-23.382 15.088-37.022C199.596 12.841 195.199 7 193.381 7 192.622 7 192 6.523 192 5.941s-.45-.781-1-.441-1 .115-1-.5-.45-.84-1-.5-1 .115-1-.5-.45-.84-1-.5-1 .156-1-.41c0-.565-.675-.768-1.5-.452-.825.317-1.5.078-1.5-.531s-.338-1.024-.75-.922-3.136.351-6.052.554M169.2 17.2c-.66.66-1.2 2.132-1.2 3.272 0 2.433 5.553 9.528 7.456 9.528 2.213 0 8.696-7.93 8.354-10.218-.468-3.138-3.333-4.561-5.924-2.943-1.522.951-2.428 1.019-3.204.243-1.43-1.43-3.99-1.374-5.482.118m-6.979 8.745c.356 3.704 1.265 5.845 3.627 8.535 1.734 1.974 3.152 4.249 3.152 5.055S169.9 41 171 41c1.649 0 2-.667 2-3.797 0-3.112-.721-4.502-4-7.703-4.128-4.031-5.186-3.801-2.42.527l1.58 2.473-2.103-2.389c-1.19-1.352-1.866-3.137-1.557-4.109.666-2.099-.341-5.002-1.734-5.002-.62 0-.834 1.939-.545 4.945m24.986-3.708c-.729.886-1.032 2.614-.693 3.961.437 1.744-.024 2.918-1.707 4.346L182.5 32.5l1.911-2.256c3.312-3.912.593-3.917-2.991-.005-2.537 2.768-3.42 4.639-3.42 7.246 0 3.121.292 3.515 2.607 3.515 1.929 0 2.454-.398 2.02-1.53-.352-.917.616-2.789 2.418-4.674 3.382-3.54 4.249-6.022 3.779-10.825-.281-2.865-.497-3.096-1.617-1.734M140.5 71c-.34.55-.141 1 .441 1S142 71.55 142 71s-.198-1-.441-1-.719.45-1.059 1m47.268 28c-.77 1.234-2.332 2-4.075 2-2.483 0-2.787.328-2.509 2.706.265 2.268 1.095 2.947 5.121 4.193 4.003 1.238 5.585 1.278 9.476.237 2.569-.687 5.019-1.786 5.444-2.443 1.491-2.302.281-4.191-2.881-4.499-2.111-.205-3.306-.943-3.648-2.25-.688-2.631-5.273-2.594-6.928.056m1.232.5c0 .933.944 1.5 2.5 1.5s2.5-.567 2.5-1.5-.944-1.5-2.5-1.5-2.5.567-2.5 1.5m-7.806 12.324.306 3.676h20l.303-3.631.304-3.631-5.598 1.558c-5.093 1.417-6.048 1.413-10.609-.045l-5.012-1.603zM78 115q0 2 2 2t2-2-2-2-2 2m0 11.062c0 7.271.168 7.938 2 7.938 1.829 0 2-.667 2-7.787 0-7.071-.184-7.801-2-7.938-1.845-.139-2 .466-2 7.787m6 .07c0 7.134.182 7.868 1.95 7.868 1.673 0 1.993-.818 2.25-5.75.271-5.198.529-5.782 2.687-6.087 3.099-.439 4.079 1.256 4.098 7.087.013 4.166.275 4.75 2.131 4.75 1.985 0 2.091-.412 1.695-6.621-.51-8.009-1.764-9.233-9.389-9.165l-5.422.049zm18.806-5.092c-2.544 2.544-2.939 3.564-2.42 6.25 1.652 8.551 14.26 9.152 16.101.767.684-3.111-.711-6.711-3.4-8.775-2.864-2.199-7.038-1.485-10.281 1.758m14.815-.364c.383 1.553 1.456 5.074 2.383 7.824 1.489 4.415 2.016 5 4.499 5 2.588 0 2.998-.554 5.154-6.945 2.824-8.37 2.834-8.555.473-8.555-1.384 0-2.204 1.234-3.154 4.75-1.926 7.124-2.261 7.227-4.057 1.25-1.271-4.231-2.153-5.575-3.823-5.824-1.921-.288-2.091.001-1.475 2.5m-12.378 2.481c-1.83 1.83-1.517 4.285.816 6.396 2.217 2.007 4.312 1.392 6.369-1.87 2.264-3.588-4.109-7.602-7.185-4.526m-6.934 13.924c-4.446 1.645-5.374 7.711-1.736 11.349 1.041 1.041 3.399 1.57 6.998 1.57H109l-.001-6.75-.001-6.75-4.256-.112c-2.34-.062-5.235.25-6.433.693M111 143c0 5.556.31 7 1.5 7 1.083 0 1.5-1.11 1.5-3.992 0-2.908.543-4.33 2-5.24 1.1-.687 2-2.096 2-3.131 0-1.6-.236-1.686-1.576-.574-.932.774-1.852.926-2.25.373-.371-.515-1.236-1.049-1.924-1.186-.905-.181-1.25 1.683-1.25 6.75m10.635-4.927c-3.194 2.512-3.604 7.74-.806 10.272 2.199 1.99 8.485 2.186 10.04.313 1.58-1.904.46-2.586-3.255-1.983-3.739.607-6.125-1.49-5.159-4.535.812-2.557 3.184-3.404 5.725-2.044 3.107 1.663 4.553-.47 1.682-2.48-3.066-2.148-5.057-2.037-8.227.457m-23.251 3.369c-1.027 2.676.104 5.053 2.57 5.403 3.144.446 5.378-2.356 3.972-4.983-1.181-2.208-5.744-2.501-6.542-.42m100.866 23.059c-2.887 1.312-5.25 2.801-5.25 3.309 0 1.015 9.41 5.19 11.698 5.19 2.256 0 11.302-4.144 11.302-5.178 0-.88-10.233-5.888-11.779-5.764-.396.031-3.084 1.131-5.971 2.443M215.158 174c0 1.375.227 1.938.504 1.25.278-.687.278-1.812 0-2.5-.277-.687-.504-.125-.504 1.25M199 175.348c0 2.629 2.08 3.614 7.679 3.638 3.392.015 6.321-2.146 6.321-4.664 0-1.085-.513-1.313-1.75-.777-3.252 1.412-8.01 1.654-10.136.516-1.881-1.007-2.114-.865-2.114 1.287m-81.236 41.941c-5.779 3.235-7.027 5.012-4.264 6.073 2.384.914 1.995 9.739-.573 13.003L110.855 239h28.323l-2.589-3.077c-3.246-3.857-3.537-9.755-.613-12.402 1.087-.983 1.754-2.149 1.481-2.59-.69-1.117-11.575-6.94-12.885-6.892-.589.022-3.653 1.484-6.808 3.25m5.572.278c-.834 2.172 1.282 4.215 2.797 2.7 1.28-1.28.487-4.267-1.133-4.267-.585 0-1.333.705-1.664 1.567m-4.669 6.1c-.834.833-.877 8.622-.06 10.751 1.599 4.168 5.393.192 5.393-5.652 0-4.452-3.058-7.375-5.333-5.099m8.042-.043c-.866.867-.94 8.612-.102 10.794.334.87 1.45 1.582 2.481 1.582 2.22 0 3.186-3.04 2.732-8.595-.249-3.039-.773-3.97-2.361-4.197-1.123-.161-2.36.027-2.75.416"/><path fill="#1976D2" fill-opacity=".192" fill-rule="evenodd" d="M90.322 62.03c-20.321 3.662-39.439 18.252-48.818 37.255-7.352 14.896-9.285 30.035-5.938 46.507 4.695 23.107 22.989 43.273 46.067 50.78 7.563 2.46 10.464 2.88 20.05 2.902 10.345.024 11.25.18 11.759 2.026.345 1.254-.071 2.373-1.116 3-4.07 2.441-9.641 8.198-11.548 11.932-1.22 2.389-2.274 6.807-2.554 10.703-.4 5.568-.081 7.498 1.983 12.006 2.858 6.243 7.324 11.036 13.159 14.124 3.173 1.68 5.877 2.194 11.634 2.212 6.459.019 8.239-.387 12.824-2.926 16.56-9.173 19.193-31.303 5.222-43.898-5.382-4.853-9.854-6.728-16.611-6.966-4.061-.142-5.435-.589-5.773-1.878-.343-1.305.805-2.084 5.023-3.411 3.006-.946 7.907-3.189 10.891-4.986l5.424-3.266V198h36.95l.275-15.909.275-15.909 4.993 1.659c4.613 1.533 5.04 1.949 5.603 5.474 1.246 7.794 7.418 13.114 15.215 13.114 6.825 0 11.819-3.001 14.618-8.782 2.614-5.4 2.614-8.894 0-14.294-5.103-10.541-19.977-11.971-26.915-2.586l-2.199 2.974-5.907-1.583-5.908-1.583v-36.626l2.983 1.542c16.236 8.396 34.72-6.66 29.549-24.071-1.653-5.567-6.331-11.001-11.25-13.068-5.345-2.246-10.583-1.679-19.504 2.109-1.576.67-1.745-.483-2-13.615L178.5 62.5l-15.405-.277-15.404-.277-2.805 3.277c-1.543 1.802-2.823 4.239-2.845 5.416-.023 1.202-.645 2.078-1.42 2-1.191-.12-20.61 22.886-20.618 24.426-.002.31 1.472 1.268 3.276 2.128 4.3 2.051 9.16 6.191 11.898 10.136l2.201 3.171-2.232-1.944c-1.52-1.324-2.052-1.474-1.667-.472.642 1.673-9.71 7.621-12.4 7.124-1.019-.188-1.179-.011-.45.5.621.436 1.774 3.042 2.564 5.792l1.434 5 1.376-5.25c1.259-4.807 1.619-5.25 4.269-5.25 1.922 0 2.723.42 2.383 1.25-.282.688-1.533 4.287-2.78 8-2.162 6.433-2.417 6.75-5.433 6.75-3.027 0-3.257-.292-5.314-6.75-2.417-7.586-2.995-8.61-5.128-9.082-1.012-.225-.767.448.75 2.064 5.059 5.389 1.363 13.849-6.143 14.062-5.218.148-8.607-3.36-8.607-8.909 0-2.347-.338-4.477-.75-4.734s-.601 2.642-.418 6.441c.291 6.044.113 6.908-1.421 6.908-.965 0-2.464.6-3.332 1.334C91.503 137.51 75.189 147 74.023 147c-.66 0-.476 1.158.477 3 .853 1.65 1.322 3 1.043 3-1.371 0-5.658-10.662-6.33-15.742-2.188-16.538 5.418-31.502 19.552-38.466 5.902-2.909 7.811-3.332 16.387-3.633l9.706-.342 10.071-12.824C130.468 74.941 135 68.959 135 68.701c0-.611-9.38-4.289-14.5-5.685-5.548-1.512-23.927-2.113-30.178-.986m97.04 36.47c-.317.825-1.598 1.5-2.847 1.5-5.165 0-5.717 6.025-.719 7.853 1.487.544 2.112 1.025 1.388 1.068-.723.043-2.213-.401-3.311-.989-1.867-.999-1.975-.792-1.684 3.25l.311 4.318 10.75.284 10.75.284v-4.034c0-2.316-.478-4.034-1.122-4.034-.795 0-.773-.422.076-1.445 1.988-2.395.885-6.008-1.954-6.401-1.375-.191-2.86-.978-3.3-1.75-1.091-1.916-7.595-1.841-8.338.096m2.907 1.193c.973.254 2.323.237 3-.037s-.119-.481-1.769-.461-2.204.244-1.231.498M194.5 109c-1.261.542-1.445.859-.5.859.825 0 2.4-.386 3.5-.859 1.261-.542 1.445-.859.5-.859-.825 0-2.4.386-3.5.859m-6 1c2.749 1.181 4.328 1.181 2.5 0-.825-.533-2.175-.945-3-.914-.989.036-.819.347.5.914m-48.738 1.707c1.244.239 3.044.23 4-.02s-.062-.446-2.262-.435-2.982.216-1.738.455M83 115.43c0 .787-1.013 1.626-2.25 1.864-1.929.372-1.858.453.5.57 2.129.105 2.75-.316 2.75-1.864 0-1.1-.225-2-.5-2s-.5.644-.5 1.43M82 127c0 5.428-.324 7-1.441 7-.793 0-1.719.45-2.059 1-.386.624 1.64 1 5.391 1H89.9l.3-5.75c.248-4.76.601-5.726 2.05-5.611 2.146.17 2.318-1.484.237-2.282-2.728-1.047-4.487 1.604-4.487 6.765 0 4.211-.273 4.878-2 4.878-1.81 0-2-.667-2-7 0-4-.429-7-1-7s-1 3-1 7m24.25-4.338c-1.865.753-1.561 6.281.386 7.029 2.254.864 4.796-.934 5.201-3.68.465-3.144-2.174-4.726-5.587-3.349m1.417 2.005c-1.211 1.211-.693 2.557.768 1.996.79-.303 1.654-.013 1.921.643.268.657.522.181.565-1.056.075-2.13-1.797-3.041-3.254-1.583M93.232 131c0 1.925.206 2.713.457 1.75.252-.963.252-2.537 0-3.5-.251-.963-.457-.175-.457 1.75M96 138c-2.68 2.68-2.642 8.109.074 10.567 1.425 1.29 3.771 1.928 7.5 2.04l5.426.164V136h-5.5c-4.167 0-5.985.485-7.5 2m14.207 5.286c.262 6.45.505 7.214 2.293 7.214 1.673 0 2.049-.768 2.303-4.699.233-3.621.749-4.842 2.25-5.318 1.071-.34 1.947-1.43 1.947-2.424 0-1.462-.863-1.823-4.543-1.897l-4.543-.091zm9.782-4.036c-2.607 4.276-2.504 6.326.466 9.295 2.933 2.934 7.387 3.214 10.537.663 1.952-1.581 2.033-1.942.689-3.058-1.203-.998-1.934-1.009-3.47-.05-2.723 1.701-5.211.46-5.211-2.6 0-2.943 2.46-4.318 4.948-2.765 1.12.7 2.27.722 3.44.068 1.667-.933 1.668-1.084.03-2.894-1.132-1.251-3.059-1.909-5.588-1.909-3.281 0-4.156.487-5.841 3.25m-20.943 2.194c-2.701 3.255 1.769 7.17 4.765 4.174 1.273-1.274 1.404-2.055.565-3.387-1.46-2.318-3.775-2.66-5.33-.787m99.669 22.855c-2.783 1.222-4.666 2.664-4.5 3.448.157.742 2.773 2.472 5.813 3.844l5.528 2.495 5.722-2.53c3.147-1.392 5.722-3.129 5.722-3.859 0-1.382-9.427-5.772-12.019-5.597-.815.055-3.634 1.044-6.266 2.199m15.952 7.368c-1.038 1.037-.784 4.333.333 4.333.55 0 1-1.125 1-2.5 0-2.618-.231-2.936-1.333-1.833M198 174.683c0 3.117 2.085 4.317 7.5 4.317s7.5-1.2 7.5-4.317c0-1.545-.436-1.77-2.25-1.158-1.238.417-3.6.758-5.25.758s-4.012-.341-5.25-.758c-1.814-.612-2.25-.387-2.25 1.158m-79.75 41.981c-6.591 3.707-7.17 4.559-4.75 6.979 2.265 2.265 1.954 9.636-.5 11.857-1.1.995-2 2.19-2 2.655s6.3.845 14 .845 14-.244 14-.542-.9-1.508-2-2.688c-2.511-2.695-2.865-11.501-.5-12.408 2.905-1.115 1.436-3.118-4.747-6.473-3.436-1.864-6.474-3.468-6.75-3.565-.277-.097-3.315 1.406-6.753 3.34M123 218.5c0 1.03.655 1.52 1.75 1.31 2.108-.406 1.975-2.181-.197-2.633-.906-.189-1.553.362-1.553 1.323m-4.538 6.795c-.335 1.336-.464 3.953-.286 5.817.25 2.613.781 3.388 2.324 3.388 1.757 0 2-.667 2-5.486 0-4.387-.344-5.553-1.714-5.817-1.128-.217-1.923.501-2.324 2.098m8.738-1.095c-1.429 1.429-1.565 7.679-.213 9.8.738 1.158 1.362 1.249 2.735.399 2.132-1.321 2.938-7.899 1.22-9.969-1.447-1.743-2.184-1.788-3.742-.23"/><path fill="#1976D2" fill-opacity=".735" fill-rule="evenodd" d="M93.76 62.047c-14.005 1.632-25.911 7.357-36.942 17.763-15.514 14.635-22.066 29.638-22.14 50.69-.058 16.549 3.552 28.061 12.909 41.175 8.422 11.801 23.609 22.153 37.913 25.842 5.621 1.45 24.969 2.348 26.105 1.212.481-.482-6.932-26.831-8.064-28.663-.284-.459-2.438-1.123-4.786-1.475-10.907-1.636-21.972-10.186-27.32-21.113-2.609-5.329-2.927-7.009-2.931-15.478-.003-8.313.346-10.25 2.794-15.5 3.683-7.895 11.378-15.616 19.097-19.16 5.11-2.346 7.572-2.829 15.105-2.961l9-.157 9.691-11.861c5.33-6.524 9.718-12.391 9.75-13.039.068-1.355-9.08-4.99-15.845-6.297-7.415-1.432-17.101-1.821-24.336-.978m50.791 4.297c-1.403 1.84-2.551 4.116-2.551 5.059s-.404 1.466-.897 1.161C140.191 72 121 95.182 121 96.847c0 .501 1.425 1.5 3.166 2.222 1.741.721 5.468 3.65 8.281 6.509l5.116 5.198 16.445-1.638 16.444-1.638.753-4.432c.435-2.562 2.028-6.019 3.774-8.191l3.021-3.76V63h-30.898zm10.949 48.644c-12.157 1.285-14.929 1.863-14.626 3.049 1.712 6.705 2.081 9.17 2.102 14.031.013 3.063-.682 7.945-1.544 10.849s-1.425 5.421-1.25 5.592 7.968 2.612 17.318 5.424 17.787 5.358 18.75 5.657c1.622.505 1.75-.776 1.75-17.547v-18.091l-3.59-5.226c-1.974-2.874-3.662-5.248-3.75-5.275s-6.91.664-15.16 1.537m-31.628 26.762c-1.243 1.586-1.208 1.621.378.378.963-.755 1.75-1.543 1.75-1.75 0-.823-.821-.294-2.128 1.372m7 8c-1.243 1.586-1.208 1.621.378.378 1.666-1.307 2.195-2.128 1.372-2.128-.207 0-.995.787-1.75 1.75m1.583 8.296c-4.049 4.147-14.326 9.954-17.615 9.954-2.417 0-2.34 1.645.592 12.5 1.336 4.95 2.922 10.888 3.523 13.195l1.092 4.195 4.452-1.34c2.449-.737 7.388-2.953 10.976-4.926l6.525-3.586V198h36l-.008-16.25-.008-16.25-20.242-5.787c-11.133-3.183-20.488-5.77-20.789-5.75s-2.325 1.858-4.498 4.083m77.849 1.454c-1.178.825-2.816 1.241-3.64.925s-2.773.162-4.331 1.063c-1.558.902-1.933 1.335-.833.962 4.214-1.426 5.156-1.306 10.449 1.333 6.389 3.186 7.31 4.882 3.391 6.247-2.437.85-2.84 1.52-2.84 4.73 0 3.48-.257 3.803-3.69 4.652-2.277.562-4.959.544-7-.048-2.978-.862-3.31-1.33-3.31-4.662 0-3.615-.524-4.106-4.239-3.972-.682.024-1.049-.264-.816-.641.233-.376-.032-1.338-.587-2.137-.872-1.254-.951-1.247-.578.048.238.825.044 2.552-.432 3.837-1.368 3.698 2.094 10.433 6.418 12.485 10.961 5.201 22.721-1.797 22.73-13.525.004-5.199-1.654-9.797-3.534-9.797-.669 0-1.777-.675-2.462-1.5-1.55-1.868-2.03-1.868-4.696 0M214 174c0 1.65.45 3 1 3s1-1.35 1-3-.45-3-1-3-1 1.35-1 3m-9.187.683c.721.289 1.584.253 1.916-.079s-.258-.568-1.312-.525c-1.165.048-1.402.285-.604.604M131 207.915c-1.375 1.019-6.325 3.875-11 6.346s-8.954 5.373-9.508 6.447c-.554 1.075-1.485 1.794-2.068 1.6-.584-.195-2.974 1.032-5.311 2.725-4.192 3.037-4.243 3.147-3.721 7.986 1.731 16.039 17.523 25.784 34.077 21.027 7.424-2.134 14.83-9.713 17.064-17.463 3.292-11.417-.925-23.901-9.569-28.333-5.274-2.705-6.7-2.752-9.964-.335m-13.75 8.744c-6.591 3.713-7.17 4.564-4.75 6.984 2.238 2.238 1.938 9.509-.5 12.127-1.1 1.18-2 2.615-2 3.188 0 1.25 28.615 1.473 29.384.23.276-.447-.597-2.092-1.941-3.656-2.88-3.352-3.316-9.517-.846-11.986.879-.879 1.377-2.173 1.107-2.876-.5-1.302-11.779-7.727-13.344-7.6-.473.038-3.672 1.653-7.11 3.589m6.444.98c-.799.799.104 2.361 1.365 2.361.518 0 .941-.675.941-1.5 0-1.546-1.18-1.987-2.306-.861m-4.087 6.943c-1.861 4.849.269 12.802 2.489 9.296 1.668-2.633.837-10.878-1.096-10.878-.432 0-1.059.712-1.393 1.582m7.838.78c-.326 1.299-.447 3.886-.269 5.75.442 4.619 3.206 4.619 3.648 0 .392-4.103-.51-8.112-1.824-8.112-.529 0-1.229 1.063-1.555 2.362"/></svg>